<mxfile host="app.diagrams.net" agent="Mozilla/5.0 (Windows NT 10.0; Win64; x64) AppleWebKit/537.36 (KHTML, like Gecko) Chrome/141.0.0.0 Safari/537.36" version="28.2.7">
  <diagram name="Standalone" id="VBy1NLk5XnznT_duUD1z">
    <mxGraphModel dx="2253" dy="811" grid="1" gridSize="10" guides="1" tooltips="1" connect="1" arrows="1" fold="1" page="1" pageScale="1" pageWidth="827" pageHeight="1169" math="0" shadow="0">
      <root>
        <mxCell id="0" />
        <mxCell id="1" parent="0" />
        <mxCell id="HGRYmRGOkshQXvAgNZ_G-27" value="Porduct Portal" style="html=1;outlineConnect=0;whiteSpace=wrap;shape=mxgraph.archimate3.application;appType=grouping;archiType=square;dashed=1;fillColor=#cdeb8b;verticalAlign=top;fontFamily=Poppins;fontSource=https%3A%2F%2Ffonts.googleapis.com%2Fcss%3Ffamily%3DPoppins;strokeColor=#36393d;opacity=60;" parent="1" vertex="1">
          <mxGeometry x="-600" y="280" width="300" height="410" as="geometry" />
        </mxCell>
        <mxCell id="HGRYmRGOkshQXvAgNZ_G-6" value="" style="group" parent="1" vertex="1" connectable="0">
          <mxGeometry x="-220" y="280" width="266" height="100" as="geometry" />
        </mxCell>
        <mxCell id="HGRYmRGOkshQXvAgNZ_G-1" value="Components Library" style="html=1;outlineConnect=0;whiteSpace=wrap;fillColor=#99ffff;shape=mxgraph.archimate3.application;appType=comp;archiType=square;fontFamily=Poppins;fontSource=https%3A%2F%2Ffonts.googleapis.com%2Fcss%3Ffamily%3DPoppins;verticalAlign=top;" parent="HGRYmRGOkshQXvAgNZ_G-6" vertex="1">
          <mxGeometry width="266" height="100" as="geometry" />
        </mxCell>
        <mxCell id="HGRYmRGOkshQXvAgNZ_G-4" style="edgeStyle=orthogonalEdgeStyle;rounded=0;orthogonalLoop=1;jettySize=auto;html=1;" parent="HGRYmRGOkshQXvAgNZ_G-6" source="HGRYmRGOkshQXvAgNZ_G-2" target="HGRYmRGOkshQXvAgNZ_G-3" edge="1">
          <mxGeometry relative="1" as="geometry" />
        </mxCell>
        <mxCell id="HGRYmRGOkshQXvAgNZ_G-2" value="Components&lt;div&gt;Service&lt;/div&gt;" style="html=1;outlineConnect=0;whiteSpace=wrap;fillColor=#99ffff;shape=mxgraph.archimate3.application;appType=serv;archiType=rounded;fontFamily=Poppins;fontSource=https%3A%2F%2Ffonts.googleapis.com%2Fcss%3Ffamily%3DPoppins;" parent="HGRYmRGOkshQXvAgNZ_G-6" vertex="1">
          <mxGeometry x="16" y="30" width="120" height="60" as="geometry" />
        </mxCell>
        <mxCell id="HGRYmRGOkshQXvAgNZ_G-3" value="&lt;div style=&quot;line-height: 160%;&quot;&gt;Components&lt;/div&gt;" style="html=1;outlineConnect=0;whiteSpace=wrap;fillColor=#99ffff;shape=mxgraph.archimate3.businessObject;overflow=fill;fontFamily=Poppins;fontSource=https%3A%2F%2Ffonts.googleapis.com%2Fcss%3Ffamily%3DPoppins;fontSize=10;spacingTop=0;verticalAlign=top;spacing=0;spacingLeft=0;" parent="HGRYmRGOkshQXvAgNZ_G-6" vertex="1">
          <mxGeometry x="166" y="40" width="83" height="40" as="geometry" />
        </mxCell>
        <mxCell id="HGRYmRGOkshQXvAgNZ_G-7" value="" style="group" parent="1" vertex="1" connectable="0">
          <mxGeometry x="-220" y="430" width="266" height="100" as="geometry" />
        </mxCell>
        <mxCell id="HGRYmRGOkshQXvAgNZ_G-8" value="Building Blocks" style="html=1;outlineConnect=0;whiteSpace=wrap;fillColor=#99ffff;shape=mxgraph.archimate3.application;appType=comp;archiType=square;fontFamily=Poppins;fontSource=https%3A%2F%2Ffonts.googleapis.com%2Fcss%3Ffamily%3DPoppins;verticalAlign=top;" parent="HGRYmRGOkshQXvAgNZ_G-7" vertex="1">
          <mxGeometry width="266" height="100" as="geometry" />
        </mxCell>
        <mxCell id="HGRYmRGOkshQXvAgNZ_G-9" style="edgeStyle=orthogonalEdgeStyle;rounded=0;orthogonalLoop=1;jettySize=auto;html=1;" parent="HGRYmRGOkshQXvAgNZ_G-7" source="HGRYmRGOkshQXvAgNZ_G-10" target="HGRYmRGOkshQXvAgNZ_G-11" edge="1">
          <mxGeometry relative="1" as="geometry" />
        </mxCell>
        <mxCell id="HGRYmRGOkshQXvAgNZ_G-10" value="Building Blocks&lt;br&gt;Service" style="html=1;outlineConnect=0;whiteSpace=wrap;fillColor=#99ffff;shape=mxgraph.archimate3.application;appType=serv;archiType=rounded;fontFamily=Poppins;fontSource=https%3A%2F%2Ffonts.googleapis.com%2Fcss%3Ffamily%3DPoppins;" parent="HGRYmRGOkshQXvAgNZ_G-7" vertex="1">
          <mxGeometry x="16" y="30" width="120" height="60" as="geometry" />
        </mxCell>
        <mxCell id="HGRYmRGOkshQXvAgNZ_G-11" value="&lt;div style=&quot;line-height: 160%;&quot;&gt;Building&lt;br&gt;Blocks&lt;/div&gt;" style="html=1;outlineConnect=0;whiteSpace=wrap;fillColor=#99ffff;shape=mxgraph.archimate3.businessObject;overflow=fill;fontFamily=Poppins;fontSource=https%3A%2F%2Ffonts.googleapis.com%2Fcss%3Ffamily%3DPoppins;fontSize=10;spacingTop=0;verticalAlign=top;spacing=0;spacingLeft=0;" parent="HGRYmRGOkshQXvAgNZ_G-7" vertex="1">
          <mxGeometry x="166" y="40" width="83" height="40" as="geometry" />
        </mxCell>
        <mxCell id="HGRYmRGOkshQXvAgNZ_G-12" value="" style="group" parent="1" vertex="1" connectable="0">
          <mxGeometry x="-220" y="590" width="266" height="100" as="geometry" />
        </mxCell>
        <mxCell id="HGRYmRGOkshQXvAgNZ_G-13" value="Product Configurator" style="html=1;outlineConnect=0;whiteSpace=wrap;fillColor=#99ffff;shape=mxgraph.archimate3.application;appType=comp;archiType=square;fontFamily=Poppins;fontSource=https%3A%2F%2Ffonts.googleapis.com%2Fcss%3Ffamily%3DPoppins;verticalAlign=top;" parent="HGRYmRGOkshQXvAgNZ_G-12" vertex="1">
          <mxGeometry width="266" height="100" as="geometry" />
        </mxCell>
        <mxCell id="HGRYmRGOkshQXvAgNZ_G-14" style="edgeStyle=orthogonalEdgeStyle;rounded=0;orthogonalLoop=1;jettySize=auto;html=1;" parent="HGRYmRGOkshQXvAgNZ_G-12" source="HGRYmRGOkshQXvAgNZ_G-15" target="HGRYmRGOkshQXvAgNZ_G-16" edge="1">
          <mxGeometry relative="1" as="geometry" />
        </mxCell>
        <mxCell id="HGRYmRGOkshQXvAgNZ_G-15" value="Product&lt;br&gt;Configurator&lt;br&gt;Service" style="html=1;outlineConnect=0;whiteSpace=wrap;fillColor=#99ffff;shape=mxgraph.archimate3.application;appType=serv;archiType=rounded;fontFamily=Poppins;fontSource=https%3A%2F%2Ffonts.googleapis.com%2Fcss%3Ffamily%3DPoppins;" parent="HGRYmRGOkshQXvAgNZ_G-12" vertex="1">
          <mxGeometry x="16" y="30" width="120" height="60" as="geometry" />
        </mxCell>
        <mxCell id="HGRYmRGOkshQXvAgNZ_G-16" value="&lt;div style=&quot;line-height: 160%;&quot;&gt;&lt;div&gt;Product&lt;/div&gt;&lt;div&gt;Configuration&lt;/div&gt;&lt;/div&gt;" style="html=1;outlineConnect=0;whiteSpace=wrap;fillColor=#99ffff;shape=mxgraph.archimate3.businessObject;overflow=fill;fontFamily=Poppins;fontSource=https%3A%2F%2Ffonts.googleapis.com%2Fcss%3Ffamily%3DPoppins;fontSize=10;spacingTop=0;verticalAlign=top;spacing=0;spacingLeft=0;" parent="HGRYmRGOkshQXvAgNZ_G-12" vertex="1">
          <mxGeometry x="166" y="40" width="83" height="40" as="geometry" />
        </mxCell>
        <mxCell id="HGRYmRGOkshQXvAgNZ_G-17" style="edgeStyle=orthogonalEdgeStyle;rounded=0;orthogonalLoop=1;jettySize=auto;html=1;" parent="1" source="HGRYmRGOkshQXvAgNZ_G-10" target="HGRYmRGOkshQXvAgNZ_G-2" edge="1">
          <mxGeometry relative="1" as="geometry" />
        </mxCell>
        <mxCell id="HGRYmRGOkshQXvAgNZ_G-18" style="edgeStyle=orthogonalEdgeStyle;rounded=0;orthogonalLoop=1;jettySize=auto;html=1;" parent="1" source="HGRYmRGOkshQXvAgNZ_G-15" target="HGRYmRGOkshQXvAgNZ_G-10" edge="1">
          <mxGeometry relative="1" as="geometry" />
        </mxCell>
        <mxCell id="HGRYmRGOkshQXvAgNZ_G-19" style="edgeStyle=orthogonalEdgeStyle;rounded=1;orthogonalLoop=1;jettySize=auto;html=1;curved=0;" parent="1" source="HGRYmRGOkshQXvAgNZ_G-15" target="HGRYmRGOkshQXvAgNZ_G-2" edge="1">
          <mxGeometry relative="1" as="geometry">
            <Array as="points">
              <mxPoint x="-144" y="560" />
              <mxPoint x="70" y="560" />
              <mxPoint x="70" y="400" />
              <mxPoint x="-144" y="400" />
            </Array>
          </mxGeometry>
        </mxCell>
        <mxCell id="HGRYmRGOkshQXvAgNZ_G-21" style="edgeStyle=orthogonalEdgeStyle;rounded=0;orthogonalLoop=1;jettySize=auto;html=1;" parent="1" source="HGRYmRGOkshQXvAgNZ_G-20" target="HGRYmRGOkshQXvAgNZ_G-2" edge="1">
          <mxGeometry relative="1" as="geometry" />
        </mxCell>
        <mxCell id="HGRYmRGOkshQXvAgNZ_G-20" value="Components Library&lt;br&gt;MicroFE" style="html=1;outlineConnect=0;whiteSpace=wrap;fillColor=#99ffff;shape=mxgraph.archimate3.application;appType=interface;archiType=square;fontFamily=Poppins;fontSource=https%3A%2F%2Ffonts.googleapis.com%2Fcss%3Ffamily%3DPoppins;" parent="1" vertex="1">
          <mxGeometry x="-440" y="310" width="130" height="60" as="geometry" />
        </mxCell>
        <mxCell id="HGRYmRGOkshQXvAgNZ_G-23" style="edgeStyle=orthogonalEdgeStyle;rounded=0;orthogonalLoop=1;jettySize=auto;html=1;" parent="1" source="HGRYmRGOkshQXvAgNZ_G-22" target="HGRYmRGOkshQXvAgNZ_G-10" edge="1">
          <mxGeometry relative="1" as="geometry" />
        </mxCell>
        <mxCell id="HGRYmRGOkshQXvAgNZ_G-22" value="Building Blocks&lt;br&gt;MicroFE" style="html=1;outlineConnect=0;whiteSpace=wrap;fillColor=#99ffff;shape=mxgraph.archimate3.application;appType=interface;archiType=square;fontFamily=Poppins;fontSource=https%3A%2F%2Ffonts.googleapis.com%2Fcss%3Ffamily%3DPoppins;" parent="1" vertex="1">
          <mxGeometry x="-440" y="460" width="130" height="60" as="geometry" />
        </mxCell>
        <mxCell id="HGRYmRGOkshQXvAgNZ_G-24" value="Product Configuration MicroFE" style="html=1;outlineConnect=0;whiteSpace=wrap;fillColor=#99ffff;shape=mxgraph.archimate3.application;appType=interface;archiType=square;fontFamily=Poppins;fontSource=https%3A%2F%2Ffonts.googleapis.com%2Fcss%3Ffamily%3DPoppins;verticalAlign=top;align=center;" parent="1" vertex="1">
          <mxGeometry x="-590" y="600" width="280" height="80" as="geometry" />
        </mxCell>
        <mxCell id="ynt3GbcB_0iskVvehYb2-7" style="edgeStyle=orthogonalEdgeStyle;rounded=0;orthogonalLoop=1;jettySize=auto;html=1;" parent="1" source="ynt3GbcB_0iskVvehYb2-1" target="ynt3GbcB_0iskVvehYb2-2" edge="1">
          <mxGeometry relative="1" as="geometry" />
        </mxCell>
        <mxCell id="ynt3GbcB_0iskVvehYb2-1" value="Product UI" style="html=1;outlineConnect=0;whiteSpace=wrap;fillColor=#99ffff;shape=mxgraph.archimate3.application;appType=interface;archiType=square;" parent="1" vertex="1">
          <mxGeometry x="-580" y="630" width="110" height="40" as="geometry" />
        </mxCell>
        <mxCell id="ynt3GbcB_0iskVvehYb2-4" style="edgeStyle=orthogonalEdgeStyle;rounded=0;orthogonalLoop=1;jettySize=auto;html=1;" parent="1" source="ynt3GbcB_0iskVvehYb2-2" target="HGRYmRGOkshQXvAgNZ_G-15" edge="1">
          <mxGeometry relative="1" as="geometry" />
        </mxCell>
        <mxCell id="P7QQO9rJDbo3lqcgtitU-1" style="edgeStyle=orthogonalEdgeStyle;rounded=1;orthogonalLoop=1;jettySize=auto;html=1;curved=0;" parent="1" source="ynt3GbcB_0iskVvehYb2-2" target="ynt3GbcB_0iskVvehYb2-13" edge="1">
          <mxGeometry relative="1" as="geometry">
            <Array as="points">
              <mxPoint x="-380" y="790" />
            </Array>
          </mxGeometry>
        </mxCell>
        <mxCell id="ynt3GbcB_0iskVvehYb2-2" value="Product BFF" style="html=1;outlineConnect=0;whiteSpace=wrap;fillColor=#99ffff;shape=mxgraph.archimate3.application;appType=comp;archiType=square;" parent="1" vertex="1">
          <mxGeometry x="-440" y="627.5" width="120" height="45" as="geometry" />
        </mxCell>
        <mxCell id="ynt3GbcB_0iskVvehYb2-5" style="edgeStyle=orthogonalEdgeStyle;rounded=1;orthogonalLoop=1;jettySize=auto;html=1;entryX=0;entryY=0.5;entryDx=0;entryDy=0;entryPerimeter=0;curved=0;" parent="1" source="ynt3GbcB_0iskVvehYb2-2" target="HGRYmRGOkshQXvAgNZ_G-10" edge="1">
          <mxGeometry relative="1" as="geometry" />
        </mxCell>
        <mxCell id="ynt3GbcB_0iskVvehYb2-6" style="edgeStyle=orthogonalEdgeStyle;rounded=1;orthogonalLoop=1;jettySize=auto;html=1;entryX=0;entryY=0.5;entryDx=0;entryDy=0;entryPerimeter=0;curved=0;" parent="1" source="ynt3GbcB_0iskVvehYb2-2" target="HGRYmRGOkshQXvAgNZ_G-2" edge="1">
          <mxGeometry relative="1" as="geometry" />
        </mxCell>
        <mxCell id="ynt3GbcB_0iskVvehYb2-13" value="Authorization Service" style="html=1;outlineConnect=0;whiteSpace=wrap;fillColor=#99ffff;shape=mxgraph.archimate3.application;appType=comp;archiType=square;" parent="1" vertex="1">
          <mxGeometry x="-320" y="750" width="130" height="70" as="geometry" />
        </mxCell>
        <mxCell id="P7QQO9rJDbo3lqcgtitU-2" style="edgeStyle=orthogonalEdgeStyle;rounded=1;orthogonalLoop=1;jettySize=auto;html=1;curved=0;" parent="1" source="HGRYmRGOkshQXvAgNZ_G-15" target="ynt3GbcB_0iskVvehYb2-13" edge="1">
          <mxGeometry relative="1" as="geometry">
            <Array as="points">
              <mxPoint x="-144" y="790" />
            </Array>
          </mxGeometry>
        </mxCell>
      </root>
    </mxGraphModel>
  </diagram>
</mxfile>
